# xmcd CD database file
#
# Track frame offsets:
#	150
#	33166
#	66831
#	88109
#	119314
#	155821
#	177741
#	199302
#	223575
#	263194
#
# Disc length: 3978 seconds
#
# Revision: 0
# Processed by: cddbd v1.5.2PL0 Copyright (c) Steve Scherf et al.
# Submitted via: CDex 1.70beta2
#
DISCID=970f880a
DTITLE=Herbie Hancock - The Imagine Project
DYEAR=2010
DGENRE=Jazz
TTITLE0=Imagine Featuring P!NK, Seal, India.Arie, Jeff Beck, Konono No. 1, and Oumou Sangare
TTITLE1=Don't Give Up Featuring P!NK and John Legend
TTITLE2=Tempo de Amor Featuring Ceu
TTITLE3=Space Captain Featuring Susan Tedeschi and Derek Trucks
TTITLE4=The Times, They Are A' Changin' Featuring The Chieftains, Toumani Diabete, and Lisa Hannigan
TTITLE5=La Tierra Featuring Juanes
TTITLE6=Tamatant Tilay/Exodus Featuring Tinariwen, K'NAAN, and Los Lobos
TTITLE7=Tomorrow Never Knows Featuring Dave Matthews
TTITLE8=A Change Is Gonna Come Featuring James Morrison
TTITLE9=The Song Goes On Featuring K.S. Chithra, Chaka Khan, Anoushka Shankar, and Wayne Shorter
EXTD=YEAR: 2010
EXTT0=
EXTT1=
EXTT2=
EXTT3=
EXTT4=
EXTT5=
EXTT6=
EXTT7=
EXTT8=
EXTT9=
PLAYORDER=
